<?xml version="1.0" standalone="no"?>
<!DOCTYPE svg PUBLIC "-//W3C//DTD SVG 20010904//EN"
 "http://www.w3.org/TR/2001/REC-SVG-20010904/DTD/svg10.dtd">
<svg version="1.0" xmlns="http://www.w3.org/2000/svg"
 width="205.000000pt" height="43.000000pt" viewBox="0 0 205.000000 43.000000"
 preserveAspectRatio="xMidYMid meet">
<metadata>
Created by potrace 1.16, written by Peter Selinger 2001-2019
</metadata>
<g transform="translate(0.000000,43.000000) scale(0.100000,-0.100000)"
fill="#000000" stroke="none">
<path d="M0 373 c0 -57 0 -57 17 -33 23 34 41 52 72 72 l26 18 -57 0 -58 0 0
-57z"/>
<path d="M233 412 c-20 -33 -81 -55 -135 -49 -26 3 -48 4 -48 0 0 -3 11 -18
25 -34 28 -34 45 -87 45 -140 0 -39 -18 -99 -29 -99 -10 0 -66 60 -79 85 -9
16 -11 -1 -12 -77 l0 -98 1025 0 1025 0 0 215 0 215 -903 0 c-866 0 -903 -1
-914 -18z m70 -29 c41 -44 75 -143 48 -143 -20 0 -65 46 -82 84 -36 79 -17
112 34 59z m1137 -108 c0 -104 2 -125 15 -125 10 0 15 10 15 28 0 38 29 62 79
69 62 8 54 33 -10 33 -49 0 -50 1 -47 28 3 25 7 27 54 30 39 2 56 -2 77 -18
25 -20 27 -26 27 -102 0 -103 -11 -118 -87 -118 -40 0 -58 5 -73 20 -20 20
-20 20 -20 0 0 -16 -7 -20 -34 -20 -18 0 -39 7 -47 16 -14 17 -27 239 -16 269
4 9 19 15 37 15 l30 0 0 -125z m290 91 c0 -34 1 -34 38 -29 28 4 44 0 65 -17
25 -20 27 -26 27 -101 0 -66 -3 -82 -20 -99 -27 -27 -108 -28 -141 -1 -23 18
-24 27 -27 150 l-4 131 31 0 c29 0 31 -3 31 -34z m-1166 -31 c9 -30 19 -69 23
-87 6 -31 8 -28 33 52 25 81 27 85 57 88 31 3 31 3 48 -70 9 -40 19 -106 22
-145 l6 -73 -32 0 c-30 0 -31 1 -32 48 0 26 -3 65 -7 87 -7 40 -8 40 -31 -48
l-23 -88 -31 3 c-30 3 -32 7 -54 82 -26 91 -33 103 -33 55 0 -19 -3 -58 -6
-87 -7 -50 -8 -52 -37 -52 l-30 0 7 73 c7 71 31 191 42 208 3 5 18 9 34 9 26
0 30 -5 44 -55z m372 -20 c21 -21 25 -33 22 -73 l-3 -47 -62 -5 c-51 -4 -61
-8 -54 -19 6 -10 26 -14 61 -12 50 1 51 1 48 -26 -2 -22 -10 -29 -36 -34 -41
-8 -99 4 -121 26 -12 12 -16 35 -16 91 0 71 2 77 28 100 39 33 99 33 133 -1z
m206 -5 c15 -19 18 -42 18 -141 0 -109 -2 -120 -22 -139 -17 -16 -35 -20 -85
-20 -62 0 -63 0 -63 28 0 27 2 28 53 27 47 0 52 2 55 23 3 21 1 22 -17 13 -25
-14 -64 -5 -86 19 -21 24 -31 118 -16 162 6 19 22 40 34 46 35 18 108 8 129
-18z m182 9 c24 -19 26 -26 26 -101 0 -103 -11 -118 -87 -118 -62 0 -93 23
-93 69 0 43 28 71 78 78 62 8 57 33 -8 33 -46 0 -50 2 -50 24 0 29 11 34 66
35 28 1 50 -6 68 -20z m694 15 c16 -5 22 -14 22 -34 0 -27 -1 -27 -50 -22 -27
2 -50 2 -50 -1 0 -3 23 -22 50 -42 45 -33 50 -41 50 -75 0 -48 -21 -62 -91
-62 -60 1 -69 6 -69 38 0 24 2 24 50 18 63 -8 65 5 6 46 -48 32 -61 57 -52 96
10 37 71 54 134 38z m-1668 -119 c0 -48 -65 -117 -129 -136 -39 -12 -111 -5
-111 10 0 26 67 95 113 117 61 28 127 32 127 9z"/>
<path d="M1532 173 c2 -12 12 -18 28 -18 16 0 26 6 28 18 3 13 -3 17 -28 17
-25 0 -31 -4 -28 -17z"/>
<path d="M1739 278 c-1 -2 -3 -27 -4 -56 -2 -42 2 -55 16 -62 35 -19 49 -2 49
61 0 59 0 59 -30 59 -16 0 -31 -1 -31 -2z"/>
<path d="M837 273 c-15 -15 -5 -23 28 -23 24 0 35 5 35 15 0 15 -50 22 -63 8z"/>
<path d="M1037 274 c-4 -4 -7 -31 -7 -60 0 -43 4 -54 19 -59 40 -12 52 4 49
64 -3 52 -5 56 -28 59 -14 2 -29 0 -33 -4z"/>
<path d="M1232 173 c2 -12 12 -18 28 -18 16 0 26 6 28 18 3 13 -3 17 -28 17
-25 0 -31 -4 -28 -17z"/>
</g>
</svg>
