<?xml version="1.0" encoding="UTF-8"?> <svg xmlns="http://www.w3.org/2000/svg" viewBox="0 0 744.06 152.49"><defs><style>.cls-1,.cls-2{fill:#009870;}.cls-2,.cls-4{fill-rule:evenodd;}.cls-3{fill:#00b296;}.cls-4{fill:#00af30;}</style></defs><g id="Layer_2" data-name="Layer 2"><g id="Layer_1-2" data-name="Layer 1"><path class="cls-1" d="M532.86,102.17l-.07,11.76c0,3.43-1,4.69-4.29,5.07-14.94,1.7-24.55-5.86-24.73-20.67-.34-27.92-.1-55.83-.1-83.75h17.86v5.3q0,35.92,0,71.84c0,10.44.67,11.06,11.32,10.45"></path><path class="cls-1" d="M302.31,68.7h28.86c-.25-6.2.66-13.3-4.65-15.85C320,49.73,313,49.42,306.64,53c-3.73,2.11-4.33,5.31-4.33,8.87ZM346,83.84H302.31v4.85c0,8.64,3,12.9,12.85,13.37s20-1.17,30.61-1.93c0,3.86.15,8.68-.12,13.48,0,.94-1.54,2.31-2.6,2.6-13.93,3.8-28,4.54-41.92.31-10.59-3.21-15.77-11.27-16.22-22-.46-11.18-.44-22.4-.05-33.58.45-13.14,7.63-22.19,20.57-24.64a65.81,65.81,0,0,1,22.4-.25c11.57,1.88,18.28,10.38,19.65,22.31C348.64,68.52,348.09,78.43,346,83.84Z"></path><path class="cls-1" d="M473.41,83.46c-6.84.27-13.54,0-20.62,1.46-4.63,1-6.14,5-5.93,9.44a9.41,9.41,0,0,0,5.15,8.07,18.78,18.78,0,0,0,14.28,1c5.26-1.86,7.76-7.17,7.53-16,0-1.07-.21-2.13-.41-4m.42-14.72v-5c0-9.42-3.19-12.93-12.72-13.08a122.72,122.72,0,0,0-24.18,2.06c0-4.76-.15-9.29.13-13.79.06-.89,1.68-2.2,2.76-2.43,12-2.56,24.11-3.06,35.94.83,10,3.31,15.33,10.6,15.55,21.31.23,11.67.2,23.35.11,35-.12,15.18-6,22.79-20.95,24.7a72.77,72.77,0,0,1-24.4-.87c-9.93-2.11-15.18-8.36-16.59-18.58-2.52-18.28,6.93-29.61,25.34-30.19C460.94,68.58,467.08,68.74,473.83,68.74Z"></path><path class="cls-1" d="M582.3,83.46c-6.84.27-13.54,0-20.62,1.46-4.63,1-6.14,5-5.93,9.44a9.41,9.41,0,0,0,5.15,8.07,18.8,18.8,0,0,0,14.29,1c5.25-1.86,7.75-7.17,7.52-16,0-1.07-.21-2.13-.41-4m.43-14.72v-5c0-9.42-3.2-12.93-12.73-13.08a122.72,122.72,0,0,0-24.18,2.06c0-4.76-.15-9.29.13-13.79.06-.89,1.68-2.2,2.77-2.43,12-2.56,24.1-3.06,35.93.83,10,3.31,15.33,10.6,15.55,21.31.23,11.67.2,23.35.11,35-.12,15.18-6,22.79-20.94,24.7a72.82,72.82,0,0,1-24.41-.87c-9.93-2.11-15.18-8.36-16.59-18.58-2.52-18.28,6.93-29.61,25.34-30.19C569.84,68.58,576,68.74,582.73,68.74Z"></path><path class="cls-1" d="M630.33,89.36c0,10.39,4.78,13.09,15.82,13.22,7.08.08,13.2-2.61,13.45-10.52q.48-14.88,0-29.77c-.19-6.29-3-9.42-9-10.26a37.28,37.28,0,0,0-11.69.28c-5.88,1.06-8.24,4.18-8.45,10.17,0,9-.16,17.93-.16,26.88m0-74.78V41.82c7.94-7.1,16.51-8.12,25.74-6.42,11.22,2.06,19.52,9.19,20.48,20.41a244.57,244.57,0,0,1,.37,39.59c-1.08,13.86-7.84,20.64-21.68,22.76a65.52,65.52,0,0,1-22.43-.6c-12-2.42-19.9-11.68-20.17-24.33-.55-26.21-.18-52.43-.18-78.65Z"></path><path class="cls-1" d="M687.26,99.92a115.49,115.49,0,0,0,28.56,2.84c2.89-.11,9.12-.37,10.08-4.33.53-2.17-1.41-4.7-3.11-6-8-6.08-17-10.88-25-17A24,24,0,0,1,689.59,48c2.11-6,6.62-9.61,12.52-11.22a61.33,61.33,0,0,1,38.44,1.91V55.36c-9.29-3.81-18.63-4.58-28.06-3.64-2.19.22-5.22,1.49-6.08,3.18-1.47,2.89.18,5.61,3.1,7.49q11.31,7.29,22.43,14.88c5.57,3.8,10.14,8.35,11.56,15.42,2.44,12-3.27,22.14-15.12,24.86a76.75,76.75,0,0,1-37.86-1.24c-2.37-.65-3.42-1.62-3.31-4.18.19-4.24,0-8.49,0-12.21"></path><path class="cls-1" d="M403.64,66.86c.05-11.92-4.05-14.91-15.52-15-7.07-.08-13,2.69-13.24,10.52q-.48,14.88,0,29.77c.18,6.29,2.9,9.43,8.85,10.26a36.38,36.38,0,0,0,11.5-.27c6.23-1.15,8.1-4.07,8.31-10.18Zm-.21,45.94c-7.74,6.9-16.09,7.87-25.08,6.2-11-2.06-19.2-9.19-20.15-20.41a247,247,0,0,1-.36-39.6c1.06-13.85,7.71-20.64,21.33-22.76a63.52,63.52,0,0,1,22.08.61c11.81,2.42,19.42,11.67,19.69,24.32l0,67.19c-.23,10.7-5.86,18-16.54,21.3-12.59,3.9-25.43,3.39-38.23.84-1.15-.23-2.88-1.55-2.94-2.44-.3-4.5-.13-9-.13-13.78a108.06,108.06,0,0,0,25.72,2c10-.25,14.63-3.66,14.63-13.07Z"></path><path class="cls-2" d="M254.55,116.74h17.34a330.17,330.17,0,0,0-3.66-45.84,367.39,367.39,0,0,0-10.88-50.75c-.56-1.88-.53-2.44-1.59-2.44h-18.9l-19.2,66.41-19.2-66.41h-18.8c-1.06,0-1.38,1.42-1.68,2.44A367.39,367.39,0,0,0,167.1,70.9a328.64,328.64,0,0,0-3.66,45.84h17.34a327.08,327.08,0,0,1,3.68-46.12q1.65-11.36,3.95-22.62l19.84,68.68h18.83L246.93,48q2.3,11.27,3.95,22.64a330.83,330.83,0,0,1,3.67,46.1"></path><path class="cls-3" d="M19.81,17.76A64.15,64.15,0,0,1,85.45,3.67,54.72,54.72,0,0,1,21,18.32l-1.19-.56"></path><path class="cls-3" d="M95.42,8.18a64.15,64.15,0,0,1,32.72,58.63l-1.21-.53A54.71,54.71,0,0,1,95.42,8.18"></path><path class="cls-4" d="M127.16,75.57a64.12,64.12,0,0,1-85.54,48.54l.45-1a82,82,0,0,1,85.09-47.51"></path><path class="cls-2" d="M33.84,120.59a64.14,64.14,0,0,1-20-96.31,82,82,0,0,1,20.45,95.29l-.48,1"></path></g></g></svg> 